<svg width="24" height="24" viewBox="0 0 24 24" fill="none" xmlns="http://www.w3.org/2000/svg">
  <path d="M10 11.2c2.1 0 3.8-1.7 3.8-3.8S12.1 3.6 10 3.6 6.2 5.3 6.2 7.4s1.7 3.8 3.8 3.8Z" fill="currentColor"/>
  <path d="M3.1 19.45c0-3.2 3.1-5.75 6.9-5.75 1.02 0 1.98.18 2.83.52a5.3 5.3 0 0 0-.73 2.7c0 1.34.49 2.56 1.3 3.5H4.05c-.52 0-.95-.43-.95-.97Z" fill="currentColor"/>
  <path d="M17.4 20.8a3.9 3.9 0 1 0 0-7.8 3.9 3.9 0 0 0 0 7.8Z" fill="currentColor" opacity=".72"/>
  <path d="M17.4 14.95v3.9M15.45 16.9h3.9" stroke="#050506" stroke-width="1.45" stroke-linecap="round"/>
</svg>
