<svg width="24" height="24" viewBox="0 0 24 24" fill="none" xmlns="http://www.w3.org/2000/svg">
  <path d="M9.2 11.2c2.15 0 3.9-1.75 3.9-3.9s-1.75-3.9-3.9-3.9-3.9 1.75-3.9 3.9 1.75 3.9 3.9 3.9Z" fill="currentColor"/>
  <path d="M2.8 19.6c0-3.35 2.88-6.05 6.4-6.05s6.4 2.7 6.4 6.05c0 .55-.45 1-1 1H3.8c-.55 0-1-.45-1-1Z" fill="currentColor"/>
  <path d="M16.65 10.8c1.67 0 3.02-1.35 3.02-3.02s-1.35-3.02-3.02-3.02c-.72 0-1.38.25-1.9.68.26.56.41 1.19.41 1.86 0 1.12-.42 2.15-1.1 2.93.63.37 1.13.57 2.59.57Z" fill="currentColor" opacity=".62"/>
  <path d="M15.7 13.4c2.93.33 5.1 2.68 5.1 5.47 0 .51-.41.93-.93.93h-2.1c-.15-2.7-1.47-4.95-2.07-6.4Z" fill="currentColor" opacity=".62"/>
</svg>
