<svg xmlns="http://www.w3.org/2000/svg" width="240" height="240" viewBox="0 0 240 240" fill="none">
  <defs>
    <linearGradient id="note" x1="54" y1="28" x2="188" y2="204" gradientUnits="userSpaceOnUse">
      <stop stop-color="#ffffff"/>
      <stop offset=".55" stop-color="#d7d7d7"/>
      <stop offset="1" stop-color="#8f8f98"/>
    </linearGradient>
    <filter id="glow" x="-20%" y="-20%" width="140%" height="140%">
      <feGaussianBlur stdDeviation="7" result="b"/>
      <feColorMatrix in="b" type="matrix" values="1 1 1 0 0  1 1 1 0 0  1 1 1 0 0  0 0 0 .26 0"/>
      <feBlend in2="SourceGraphic"/>
    </filter>
  </defs>
  <rect x="14" y="14" width="212" height="212" rx="58" fill="#070708" fill-opacity=".92"/>
  <rect x="15" y="15" width="210" height="210" rx="57" stroke="#ffffff" stroke-opacity=".12" stroke-width="2"/>
  <path filter="url(#glow)" d="M150 48c0-8 6-15 14-16l30-5c8-1 15 5 15 13v31c0 7-5 13-12 15l-27 5v70c0 22-19 40-43 40-22 0-40-14-40-32 0-19 18-33 40-33 7 0 14 1 20 4V48h3Z" fill="url(#note)"/>
  <path d="M147 88 87 99v75c0 21-19 38-42 38-21 0-38-13-38-31 0-18 17-31 38-31 7 0 13 1 19 4V82c0-8 6-15 14-16l69-12v34Z" fill="url(#note)" opacity=".96"/>
</svg>