<svg xmlns="http://www.w3.org/2000/svg" width="520" height="140" viewBox="0 0 520 140">
  <rect x="0" y="10" width="118" height="118" rx="32" fill="#050505"/>
  <rect x="1" y="11" width="116" height="116" rx="31" fill="none" stroke="#2b2b2b" stroke-width="2"/>
  <path d="M32 75c0-22 17-39 40-39 17 0 31 9 38 23l-19 7c-4-9-11-13-20-13-12 0-21 9-21 22s9 22 22 22c9 0 16-5 20-12l19 7c-7 15-22 23-40 23-23 0-39-17-39-40Z" fill="#f4f4f4"/>
  <path d="M56 31 68 17h14l-7 14H56Zm16 0 12-14h14l-7 14H72Z" fill="#f4f4f4" opacity=".82"/>
  <text x="144" y="75" font-family="Inter, Arial, sans-serif" font-size="48" font-weight="800" fill="#f4f4f4">chorus</text>
  <text x="146" y="104" font-family="Inter, Arial, sans-serif" font-size="15" fill="#9b9b9b">private chat, calls, and screen share</text>
</svg>