<svg xmlns="http://www.w3.org/2000/svg" width="640" height="220" viewBox="0 0 640 220" fill="none">
<defs>
  <linearGradient id="g1" x1="0" y1="0" x2="1" y2="1">
    <stop offset="0" stop-color="#7C5CFF"/>
    <stop offset="0.55" stop-color="#3DD8FF"/>
    <stop offset="1" stop-color="#FF74B5"/>
  </linearGradient>
</defs>
<rect x="14" y="14" width="192" height="192" rx="56" fill="#121A2A"/>
<path d="M62 117c0-31 24-55 55-55 24 0 43 12 54 32l-27 10c-6-12-17-18-28-18-16 0-30 13-30 31s14 31 31 31c12 0 22-6 28-17l27 10c-10 20-31 31-55 31-32 0-55-24-55-55Z" fill="url(#g1)"/>
<path d="M93 42 112 19h18l-10 23H93Zm22 0 19-23h19l-11 23h-27Z" fill="url(#g1)"/>
<text x="235" y="130" font-family="Inter, Arial, sans-serif" font-size="82" font-weight="800" fill="white">chorus</text>
<text x="239" y="168" font-family="Inter, Arial, sans-serif" font-size="20" fill="#AEB8D1">chat with a softer echo</text>
</svg>